<svg width="700" height="400" viewBox="0 0 700 400" fill="none" xmlns="http://www.w3.org/2000/svg">
<rect width="700" height="400" fill="#4600DA"/>
<path d="M205 153V244H183.062V153H205ZM232.375 153V169.938H156.312V153H232.375ZM262.938 176.375V244H241.812V176.375H262.938ZM240.562 158.938C240.562 155.938 241.646 153.479 243.812 151.562C245.979 149.646 248.792 148.688 252.25 148.688C255.708 148.688 258.521 149.646 260.688 151.562C262.854 153.479 263.938 155.938 263.938 158.938C263.938 161.938 262.854 164.396 260.688 166.312C258.521 168.229 255.708 169.188 252.25 169.188C248.792 169.188 245.979 168.229 243.812 166.312C241.646 164.396 240.562 161.938 240.562 158.938ZM297.188 190.688V244H276.125V176.375H295.875L297.188 190.688ZM294.625 207.875L289.812 208C289.812 203.25 290.375 198.875 291.5 194.875C292.625 190.875 294.292 187.396 296.5 184.438C298.708 181.479 301.417 179.188 304.625 177.562C307.875 175.938 311.625 175.125 315.875 175.125C318.833 175.125 321.521 175.583 323.938 176.5C326.354 177.375 328.438 178.771 330.188 180.688C331.938 182.562 333.271 185.021 334.188 188.062C335.146 191.062 335.625 194.667 335.625 198.875V244H314.562V201.562C314.562 198.688 314.229 196.521 313.562 195.062C312.938 193.604 312.021 192.625 310.812 192.125C309.604 191.625 308.125 191.375 306.375 191.375C304.542 191.375 302.896 191.792 301.438 192.625C299.979 193.458 298.729 194.625 297.688 196.125C296.688 197.583 295.917 199.312 295.375 201.312C294.875 203.312 294.625 205.5 294.625 207.875ZM333.25 207.875L327.375 208C327.375 203.25 327.896 198.875 328.938 194.875C330.021 190.875 331.625 187.396 333.75 184.438C335.917 181.479 338.604 179.188 341.812 177.562C345.021 175.938 348.75 175.125 353 175.125C356.083 175.125 358.917 175.583 361.5 176.5C364.083 177.417 366.312 178.896 368.188 180.938C370.062 182.979 371.521 185.688 372.562 189.062C373.604 192.396 374.125 196.521 374.125 201.438V244H353V201.438C353 198.646 352.667 196.542 352 195.125C351.375 193.667 350.458 192.688 349.25 192.188C348.042 191.646 346.604 191.375 344.938 191.375C342.938 191.375 341.208 191.792 339.75 192.625C338.292 193.458 337.062 194.625 336.062 196.125C335.104 197.583 334.396 199.312 333.938 201.312C333.479 203.312 333.25 205.5 333.25 207.875ZM418.938 245.25C413.438 245.25 408.521 244.396 404.188 242.688C399.854 240.938 396.188 238.542 393.188 235.5C390.229 232.458 387.958 228.958 386.375 225C384.833 221.042 384.062 216.854 384.062 212.438V210.062C384.062 205.104 384.75 200.521 386.125 196.312C387.5 192.062 389.542 188.354 392.25 185.188C394.958 182.021 398.354 179.562 402.438 177.812C406.521 176.021 411.271 175.125 416.688 175.125C421.479 175.125 425.771 175.896 429.562 177.438C433.354 178.979 436.562 181.188 439.188 184.062C441.854 186.938 443.875 190.417 445.25 194.5C446.667 198.583 447.375 203.167 447.375 208.25V216.812H392.125V203.625H426.812V202C426.854 199.75 426.458 197.833 425.625 196.25C424.833 194.667 423.667 193.458 422.125 192.625C420.583 191.792 418.708 191.375 416.5 191.375C414.208 191.375 412.312 191.875 410.812 192.875C409.354 193.875 408.208 195.25 407.375 197C406.583 198.708 406.021 200.688 405.688 202.938C405.354 205.188 405.188 207.562 405.188 210.062V212.438C405.188 214.938 405.521 217.208 406.188 219.25C406.896 221.292 407.896 223.042 409.188 224.5C410.521 225.917 412.104 227.021 413.938 227.812C415.812 228.604 417.938 229 420.312 229C423.188 229 426.021 228.458 428.812 227.375C431.604 226.292 434 224.5 436 222L445.562 233.375C444.188 235.333 442.229 237.229 439.688 239.062C437.188 240.896 434.188 242.396 430.688 243.562C427.188 244.688 423.271 245.25 418.938 245.25ZM477.188 193.125V244H456.125V176.375H475.812L477.188 193.125ZM497.188 175.875L496.812 195.438C495.979 195.354 494.854 195.25 493.438 195.125C492.021 195 490.833 194.938 489.875 194.938C487.417 194.938 485.292 195.229 483.5 195.812C481.75 196.354 480.292 197.188 479.125 198.312C478 199.396 477.167 200.771 476.625 202.438C476.125 204.104 475.896 206.042 475.938 208.25L472.125 205.75C472.125 201.208 472.562 197.083 473.438 193.375C474.354 189.625 475.646 186.396 477.312 183.688C478.979 180.938 481 178.833 483.375 177.375C485.75 175.875 488.417 175.125 491.375 175.125C492.417 175.125 493.438 175.188 494.438 175.312C495.479 175.438 496.396 175.625 497.188 175.875ZM525.688 193.125V244H504.625V176.375H524.312L525.688 193.125ZM545.688 175.875L545.312 195.438C544.479 195.354 543.354 195.25 541.938 195.125C540.521 195 539.333 194.938 538.375 194.938C535.917 194.938 533.792 195.229 532 195.812C530.25 196.354 528.792 197.188 527.625 198.312C526.5 199.396 525.667 200.771 525.125 202.438C524.625 204.104 524.396 206.042 524.438 208.25L520.625 205.75C520.625 201.208 521.062 197.083 521.938 193.375C522.854 189.625 524.146 186.396 525.812 183.688C527.479 180.938 529.5 178.833 531.875 177.375C534.25 175.875 536.917 175.125 539.875 175.125C540.917 175.125 541.938 175.188 542.938 175.312C543.979 175.438 544.896 175.625 545.688 175.875Z" fill="white"/>
</svg>
